# xmcd
#
# Track frame offsets:
# 150
# 17916
# 32042
# 44672
# 60485
# 75509
# 90460
# 102163
# 117147
# 135836
# 151963
# 166779
# 182008
# 197094
# 211373
# 224408
# 239512
# 255835
# 271047
# 284637
#
# Disc length: 3960 seconds
#
#
# Revision: 0
# Processed by: cddbd v1.5.2PL0 Copyright (c) Steve Scherf et al.
# Submitted via: FreeRIP 2.95 
#
DISCID=0b0f7614
DTITLE=Varios - O Melhor Do Romantico
DYEAR=2006
DGENRE=Country
TTITLE0=Marianne - Bruno and Marrone
TTITLE1=Amor De Ping Pong - Bruno and Marrone
TTITLE2=Desiguais - Bruno and Marrone
TTITLE3=Ta Pegando - Bruno and Marrone
TTITLE4=Que Pescar Que Nada - Bruno and Marrone
TTITLE5=Alo Roias - Leonardo
TTITLE6=Meto O Pe Na Cara Dele - Leonardo
TTITLE7=Naufrago Ilhado - Leonardo
TTITLE8=De Corpo E Alma - Leonardo
TTITLE9=Por Toda A Vida - Leonardo
TTITLE10=Duas Vidas Dois Amores - Edson and Hudson
TTITLE11=Eu Nao Sei Dizer Que Nao Te Amor - Edson and Hudson
TTITLE12=Para Sempre - Edson and Hudson
TTITLE13=Encasquetou - Edson and Hudson
TTITLE14=Hoje Eu Posso Chorar - Edson and Hudson
TTITLE15=Caso Marcado - Cezar Menotti and Fabiano
TTITLE16=Me Apaixonei - Cezar Menotti and Fabiano
TTITLE17=Leilao - Cezar Menotti and Fabiano
TTITLE18=Como Um Anjo - Cezar Menotti and Fabiano
TTITLE19=Mensagem Pra Ela - Cezar Menotti and Fabiano
EXTD=
EXTT0=
EXTT1=
EXTT2=
EXTT3=
EXTT4=
EXTT5=
EXTT6=
EXTT7=
EXTT8=
EXTT9=
EXTT10=
EXTT11=
EXTT12=
EXTT13=
EXTT14=
EXTT15=
EXTT16=
EXTT17=
EXTT18=
EXTT19=
PLAYORDER=
